HIERARCHY
ROOT Hips
{
	OFFSET 15.585500 22.159004 44.358299
	CHANNELS 6 Xposition Yposition Zposition Zrotation Xrotation Yrotation
	JOINT Chest
	{
		OFFSET -0.128500 0.160400 6.566002
		CHANNELS 6 Xposition Yposition Zposition Zrotation Xrotation Yrotation
		JOINT Chest2
		{
			OFFSET 0.000000 0.000000 3.554802
			CHANNELS 6 Xposition Yposition Zposition Zrotation Xrotation Yrotation
			JOINT Neck
			{
				OFFSET 0.000000 0.000000 8.267998
				CHANNELS 6 Xposition Yposition Zposition Zrotation Xrotation Yrotation
				JOINT Head
				{
					OFFSET 0.000000 0.000002 2.173897
					CHANNELS 6 Xposition Yposition Zposition Zrotation Xrotation Yrotation
					End Site
					{
						OFFSET 0.000000 0.000000 7.718697
					}
				}
			}
			JOINT LeftCollar
			{
				OFFSET 2.057500 0.117599 5.946301
				CHANNELS 6 Xposition Yposition Zposition Zrotation Xrotation Yrotation
				JOINT LeftShoulder
				{
					OFFSET 4.957699 0.000000 0.000000
					CHANNELS 6 Xposition Yposition Zposition Zrotation Xrotation Yrotation
					JOINT LeftElbow
					{
						OFFSET 0.000000 0.000000 -8.465500
						CHANNELS 6 Xposition Yposition Zposition Zrotation Xrotation Yrotation
						JOINT LeftWrist
						{
							OFFSET 0.000000 -0.000002 -14.594898
							CHANNELS 6 Xposition Yposition Zposition Zrotation Xrotation Yrotation
							End Site
							{
								OFFSET 0.000000 0.000000 -2.173901
							}
						}
					}
				}
			}
			JOINT RightCollar
			{
				OFFSET -3.048500 -0.728800 6.604099
				CHANNELS 6 Xposition Yposition Zposition Zrotation Xrotation Yrotation
				JOINT RightShoulder
				{
					OFFSET -3.710299 0.000000 0.000000
					CHANNELS 6 Xposition Yposition Zposition Zrotation Xrotation Yrotation
					JOINT RightElbow
					{
						OFFSET 0.000000 0.000000 -10.450901
						CHANNELS 6 Xposition Yposition Zposition Zrotation Xrotation Yrotation
						JOINT RightWrist
						{
							OFFSET 0.000000 0.000000 -12.539200
							CHANNELS 6 Xposition Yposition Zposition Zrotation Xrotation Yrotation
							End Site
							{
								OFFSET 0.000000 -0.000002 -2.173901
							}
						}
					}
				}
			}
		}
	}
	JOINT LeftHip
	{
		OFFSET 2.442599 -0.601400 -2.767502
		CHANNELS 6 Xposition Yposition Zposition Zrotation Xrotation Yrotation
		JOINT LeftKnee
		{
			OFFSET 0.000000 -0.000002 -17.033703
			CHANNELS 6 Xposition Yposition Zposition Zrotation Xrotation Yrotation
			JOINT LeftAnkle
			{
				OFFSET 0.000000 -0.000002 -19.318800
				CHANNELS 6 Xposition Yposition Zposition Zrotation Xrotation Yrotation
				End Site
				{
					OFFSET 0.000000 -8.281900 0.000000
				}
			}
		}
	}
	JOINT RightHip
	{
		OFFSET -3.126200 -0.601400 -2.283501
		CHANNELS 6 Xposition Yposition Zposition Zrotation Xrotation Yrotation
		JOINT RightKnee
		{
			OFFSET 0.000000 -0.000002 -16.919401
			CHANNELS 6 Xposition Yposition Zposition Zrotation Xrotation Yrotation
			JOINT RightAnkle
			{
				OFFSET 0.000000 -0.000002 -18.035900
				CHANNELS 6 Xposition Yposition Zposition Zrotation Xrotation Yrotation
				End Site
				{
					OFFSET 0.000000 -9.230099 0.000000
				}
			}
		}
	}
}
MOTION
Frames: 7
Frame Time: 0.041667
24.265402 40.674603 8.140598 3.602425 -10.082582 3.919883 -0.128499 0.160406 6.566007 -3.725595 21.703587 3.649718 0.000000 0.000004 3.554814 8.002348 -9.756410 0.254244 -0.000002 -0.000003 8.267996 -41.753544 10.728901 15.350164 0.000000 0.000007 2.173901 -3.987556 4.900270 -6.389221 2.057499 0.117601 5.946307 -16.507329 4.238052 -3.403185 4.957699 0.000006 0.000003 -26.586902 3.950379 -127.236616 0.000005 -0.000001 -8.465508 -62.002634 -122.184844 -53.037884 0.000004 -0.000003 -14.594897 -48.900268 -53.518183 -1.041088 -3.048507 -0.728799 6.604099 35.226977 2.962887 -28.565583 -3.710287 0.000004 0.000003 -12.930071 -10.388754 70.707997 0.000005 0.000004 -10.450895 -193.952128 -65.626104 -139.732474 0.000000 -0.000003 -12.539191 599.348225 1.602527 -6.100126 2.442599 -0.601396 -2.767497 131.522915 -8.062073 89.425358 -0.000000 -0.000005 -17.033707 -166.395593 47.835588 160.152636 -0.000002 -0.000003 -19.318798 -131.828088 120.044768 392.825489 -3.126199 -0.601394 -2.283496 -123.082823 -37.132518 -81.436810 -0.000003 -0.000004 -16.919394 332.868368 -65.387894 -195.386645 -0.000001 -0.000007 -18.035896 192.233256 53.087082 -187.076272
24.257999 40.703609 8.132496 3.688757 -10.187115 3.866175 -0.128504 0.160394 6.566012 -3.807292 22.054221 3.669188 -0.000001 0.000001 3.554807 8.196205 -9.769969 0.289095 0.000004 0.000006 8.267998 -41.731380 11.037687 15.601525 0.000001 0.000006 2.173899 -4.027989 5.048218 -6.260271 2.057505 0.117607 5.946305 -16.403360 4.294916 -3.464894 4.957694 0.000008 0.000001 -27.036860 3.565302 -127.124888 -0.000000 0.000004 -8.465502 -61.793370 -122.039020 -52.747451 0.000002 0.000004 -14.594898 -48.506026 -53.529446 -0.857709 -3.048497 -0.728795 6.604097 35.433840 3.036904 -28.915975 -3.710292 0.000001 0.000000 -12.869763 -9.442474 70.073786 0.000005 0.000004 -10.450902 -197.312813 -64.485571 -143.445078 0.000004 0.000001 -12.539196 601.089104 -0.446753 -6.213384 2.442589 -0.601404 -2.767496 131.331260 -8.151757 89.303767 -0.000001 -0.000004 -17.033707 -166.160949 47.909515 159.973043 -0.000001 -0.000001 -19.318806 -131.795904 120.010467 392.868547 -3.126202 -0.601406 -2.283494 -123.155155 -37.094778 -81.441974 -0.000003 -0.000002 -16.919401 333.685422 -65.471099 -194.826420 0.000001 -0.000005 -18.035898 192.529809 53.072796 -187.177263
24.250401 40.730705 8.125103 3.777116 -10.279098 3.815939 -0.128500 0.160394 6.566007 -3.891324 22.393892 3.685895 -0.000001 0.000003 3.554804 8.387474 -9.979532 0.304049 0.000002 -0.000003 8.268000 -41.748295 11.467257 16.005044 0.000001 0.000003 2.173906 -4.068474 5.203193 -6.123535 2.057503 0.117599 5.946307 -16.281462 4.516398 -3.461983 4.957701 0.000006 0.000001 -27.509021 3.171768 -126.992546 0.000000 0.000004 -8.465497 -61.574340 -121.892977 -52.449385 0.000001 0.000001 -14.594897 -48.071254 -53.558461 -0.627533 -3.048506 -0.728799 6.604101 35.632564 3.262859 -29.350108 -3.710296 -0.000001 0.000001 -12.752999 -8.495739 69.447403 0.000009 0.000002 -10.450896 -200.167546 -63.516805 -146.611540 0.000005 -0.000003 -12.539191 603.134445 -2.307453 -6.509370 2.442597 -0.601400 -2.767503 131.190039 -8.251384 89.210084 -0.000000 -0.000005 -17.033703 -165.945088 47.936826 159.837095 -0.000004 -0.000000 -19.318802 -131.765414 119.978502 392.907916 -3.126197 -0.601407 -2.283498 -123.228757 -37.062242 -81.447281 -0.000004 -0.000003 -16.919395 334.391500 -65.542919 -194.341585 -0.000001 -0.000000 -18.035896 192.774248 53.060280 -187.253789
24.242798 40.755905 8.118393 3.865393 -10.358690 3.771804 -0.128500 0.160406 6.566005 -3.974861 22.721466 3.699280 -0.000002 0.000001 3.554803 8.595937 -9.992629 0.344239 0.000000 0.000009 8.268003 -41.769305 11.754834 16.261407 -0.000000 0.000005 2.173898 -4.104484 5.362739 -5.984992 2.057501 0.117603 5.946311 -16.154852 4.538731 -3.548672 4.957691 0.000010 0.000002 -27.990938 2.783336 -126.841654 -0.000002 0.000001 -8.465506 -61.335563 -121.749789 -52.154204 0.000005 0.000003 -14.594897 -47.585310 -53.611101 -0.336659 -3.048504 -0.728794 6.604098 35.779847 3.291112 -29.667910 -3.710294 0.000001 -0.000000 -12.587477 -7.561545 68.827693 0.000009 0.000008 -10.450903 -202.576294 -62.746994 -149.295545 0.000002 -0.000002 -12.539195 605.327428 -3.980518 -6.974184 2.442595 -0.601394 -2.767500 131.050088 -8.358879 89.126046 -0.000001 0.000003 -17.033707 -165.723025 47.963641 159.707486 -0.000003 0.000000 -19.318800 -131.735662 119.949446 392.943624 -3.126197 -0.601393 -2.283499 -123.296826 -37.038589 -81.447834 -0.000003 -0.000001 -16.919392 334.977148 -65.605770 -193.935025 0.000002 -0.000002 -18.035892 192.967529 53.049721 -187.305630
24.235100 40.779007 8.112301 3.951173 -10.426464 3.736138 -0.128500 0.160404 6.566009 -4.054981 23.036071 3.709115 -0.000004 -0.000001 3.554806 8.813454 -10.000194 0.388360 -0.000000 0.000010 8.268003 -41.813899 12.032031 16.512624 0.000002 0.000005 2.173898 -4.003460 5.347603 -6.099539 2.057501 0.117610 5.946308 -16.023784 4.541540 -3.657570 4.957705 0.000009 0.000006 -28.470202 2.411836 -126.672948 0.000000 0.000006 -8.465497 -61.068298 -121.612160 -51.871974 0.000002 -0.000001 -14.594893 -47.038888 -53.691748 0.025706 -3.048503 -0.728795 6.604100 35.882160 3.267707 -29.839956 -3.710291 0.000002 0.000002 -12.405235 -6.613932 68.099643 0.000012 0.000007 -10.450902 -204.567745 -62.192397 -151.533648 0.000003 -0.000002 -12.539194 607.583357 -5.396877 -8.402167 2.442595 -0.601399 -2.767500 130.914099 -8.476858 89.053079 -0.000003 -0.000003 -17.033709 -165.492656 47.989725 159.582739 -0.000001 -0.000001 -19.318806 -131.705527 119.923382 392.975152 -3.126197 -0.601404 -2.283499 -123.353285 -37.026701 -81.440027 -0.000002 -0.000002 -16.919399 335.437420 -65.662119 -193.607203 0.000001 -0.000001 -18.035896 193.110539 53.041207 -187.332650
24.227303 40.800003 8.106995 4.032649 -10.482352 3.710507 -0.128499 0.160396 6.566008 -4.129199 23.336605 3.715574 0.000000 0.000002 3.554801 9.040942 -10.001076 0.437035 0.000001 -0.000008 8.268000 -41.882481 12.300170 16.754483 -0.000000 0.000003 2.173900 -3.804910 5.521015 -6.368244 2.057501 0.117599 5.946301 -15.892894 4.525649 -3.796302 4.957696 0.000001 0.000004 -28.935659 2.067533 -126.485978 -0.000000 0.000004 -8.465505 -60.765721 -121.482318 -51.611788 0.000004 0.000004 -14.594900 -46.425954 -53.802343 0.464763 -3.048505 -0.728804 6.604097 35.920467 3.216348 -30.086433 -3.710289 0.000004 0.000006 -12.165803 -5.730331 67.480343 0.000013 0.000005 -10.450909 -206.147991 -61.861174 -153.341695 0.000005 -0.000001 -12.539190 609.754374 -6.702857 -9.412670 2.442593 -0.601395 -2.767498 130.784093 -8.606192 88.992304 -0.000002 0.000001 -17.033710 -165.253244 48.014656 159.461790 -0.000004 -0.000003 -19.318804 -131.673903 119.900419 393.001981 -3.126202 -0.601398 -2.283497 -123.393952 -37.027828 -81.421715 -0.000002 0.000000 -16.919403 335.771744 -65.713667 -193.356577 0.000003 -0.000001 -18.035896 193.206162 53.034664 -187.336434
24.219603 40.819004 8.102505 4.108120 -10.526746 3.695920 -0.128497 0.160397 6.566006 -4.195636 23.622185 3.719267 0.000002 0.000001 3.554805 9.278535 -9.994484 0.490394 0.000001 0.000000 8.267998 -41.974822 12.560134 16.983270 -0.000004 0.000003 2.173894 -3.736196 5.644578 -6.392104 2.057503 0.117609 5.946300 -15.765185 4.492312 -3.971743 4.957695 0.000006 0.000002 -29.379041 1.758209 -126.279720 -0.000003 -0.000001 -8.465496 -60.424279 -121.361424 -51.380945 0.000003 0.000003 -14.594902 -45.744492 -53.942368 0.979843 -3.048502 -0.728800 6.604096 35.889062 3.118174 -30.294751 -3.710290 0.000001 0.000002 -11.900021 -4.879409 66.865633 0.000009 0.000005 -10.450904 -207.310503 -61.755435 -154.721475 0.000005 -0.000005 -12.539196 611.776110 -7.844810 -10.648407 2.442597 -0.601399 -2.767503 130.662011 -8.746800 88.944718 -0.000001 0.000004 -17.033707 -165.005267 48.038138 159.344106 -0.000003 0.000003 -19.318806 -131.640367 119.880530 393.024357 -3.126198 -0.601402 -2.283499 -123.416505 -37.042148 -81.392209 -0.000004 -0.000006 -16.919399 335.983016 -65.761628 -193.180686 -0.000002 -0.000002 -18.035898 193.257744 53.029927 -187.319154
